<?xml version="1.0" encoding="utf-8"?>
<!-- Generator: Adobe Illustrator 24.1.3, SVG Export Plug-In . SVG Version: 6.00 Build 0)  -->
<svg version="1.1" xmlns="http://www.w3.org/2000/svg" xmlns:xlink="http://www.w3.org/1999/xlink" x="0px" y="0px"
	 viewBox="0 0 595.28 841.89" style="enable-background:new 0 0 595.28 841.89;" xml:space="preserve">
<style type="text/css">
	.st0{display:none;}
	.st1{display:inline;}
	.st2{fill:#434343;}
	.st3{fill:#072232;}
	.st4{fill:#010101;}
	.st5{display:inline;fill:#FFFFFF;}
	.st6{display:inline;fill:#ED1F6C;}
	.st7{fill:url(#SVGID_1_);}
	.st8{fill:url(#SVGID_2_);}
	.st9{fill-rule:evenodd;clip-rule:evenodd;fill:url(#SVGID_3_);stroke:#000000;stroke-width:0.25;stroke-miterlimit:10;}
	.st10{fill:url(#SVGID_4_);stroke:#000000;stroke-width:2;stroke-miterlimit:10;}
	.st11{fill:url(#SVGID_5_);stroke:#000000;stroke-width:2;stroke-miterlimit:10;}
	.st12{fill:none;}
	.st13{fill:#FCF7F7;stroke:#000000;stroke-miterlimit:10;}
	.st14{fill-rule:evenodd;clip-rule:evenodd;fill:#595959;}
</style>
<g id="Layer_4" class="st0">
	<g class="st1">
		<g>
			<path class="st2" d="M225.34,346.3C225.34,346.31,225.34,346.31,225.34,346.3c8.37,9.62,6.09,25.35-5.09,35.07
				c-3.6,3.13-7.82,5.37-12.2,6.47c-3.04,0.76-5.23,3.73-4.89,6.62c0.34,2.89,3.07,4.62,6.11,3.86c6.34-1.59,12.43-4.82,17.61-9.33
				c16.05-13.97,19.33-36.58,7.31-50.39c0,0,0,0,0,0l7.48-6.51l-26.78-6.74l2.97,27.46L225.34,346.3z"/>
		</g>
		<path class="st2" d="M225.41,282.36l-22.74,1.12l12.98,18.71l3.07-6.22c10.05,4.95,14.49,16.54,9.92,25.83
			c-1.48,3-3.77,5.5-6.64,7.25c-1.97,1.21-2.45,3.78-1.07,5.74c1.39,1.96,4.12,2.58,6.1,1.37c4.14-2.53,7.45-6.14,9.57-10.45
			c6.58-13.36,0.19-30.01-14.25-37.12L225.41,282.36z"/>
		<g>
			<path class="st3" d="M185.52,298.41l-39.17,5.69l7.31,9.4c-1.04,0.78-2.36,1.91-3.61,2.97c-1.26,1.06-2.52,2.13-3.64,3.33
				c-1.13,1.19-2.37,2.3-3.4,3.57l-3.13,3.8l-2.78,4.02c-0.48,0.66-0.85,1.38-1.26,2.07l-1.45,2.57c-0.63,1.03-1.05,2.13-1.56,3.21
				c-2.07,4.29-3.35,8.79-4.35,13.27l-0.52,3.38l-0.24,1.69l-0.1,1.68l-0.17,3.36l0.14,3.32c0.94,17.75,11.92,33.29,28.29,39.83
				c8.07,3.43,17.37,4.5,26.68,3.52c9.34-0.95,18.72-4.42,27.05-9.54c2.03-1.22,3.91-2.69,5.85-4.04l-9.37-12.06
				c-1.39,0.93-2.7,1.99-4.13,2.84c-5.86,3.57-12.4,6.04-18.97,6.69c-6.55,0.68-13.11-0.04-18.76-2.47l-2.12-0.9l-1.98-1.12
				c-1.39-0.66-2.48-1.7-3.75-2.51c-1.12-0.99-2.28-1.95-3.3-3.03c-0.94-1.16-2.06-2.18-2.83-3.47c-3.44-4.87-5.6-10.68-5.88-16.92
				l-0.11-2.33l0.13-2.37l0.05-1.18l0.18-1.19l0.35-2.38c0.74-3.15,1.59-6.32,3.07-9.33c0.37-0.75,0.63-1.54,1.09-2.25l1.02-1.8
				c0.29-0.49,0.52-1,0.87-1.46l1.94-2.82l2.2-2.66c0.7-0.91,1.61-1.66,2.39-2.5c0.77-0.86,1.67-1.6,2.57-2.34
				c0.89-0.75,1.69-1.48,2.89-2.38l7.31,9.4L185.52,298.41z"/>
		</g>
		<g>
			<g>
				<g>
					<path class="st4" d="M193.78,388.23v-85.31l-14.02,7.58v-13.53c8.93-5.56,14.77-10.66,17.54-15.3l11.4-2.48v105.79
						L193.78,388.23z"/>
				</g>
			</g>
			<g class="st0">
				<path class="st5" d="M200.26,386.01V300.7l-14.02,7.58v-13.53c8.93-5.56,14.77-10.66,17.54-15.3l11.4-2.48v105.79L200.26,386.01
					z"/>
			</g>
			<g class="st0">
				<path class="st6" d="M206.12,384.37v-85.31l-14.02,7.58v-13.53c8.93-5.56,14.77-10.66,17.54-15.3l11.4-2.48v105.79
					L206.12,384.37z"/>
			</g>
		</g>
	</g>
</g>
<g id="Layer_6" class="st0">
</g>
<g id="Layer_9" class="st0">
	<g class="st1">
		<g>
			<linearGradient id="SVGID_1_" gradientUnits="userSpaceOnUse" x1="221.4865" y1="412.0713" x2="147.8085" y2="348.2369">
				<stop  offset="2.237672e-07" style="stop-color:#FBB040"/>
				<stop  offset="0.0618" style="stop-color:#FAA63C"/>
				<stop  offset="0.2499" style="stop-color:#F68C34"/>
				<stop  offset="0.4391" style="stop-color:#F4782F"/>
				<stop  offset="0.6276" style="stop-color:#F2682B"/>
				<stop  offset="0.8149" style="stop-color:#F15E29"/>
				<stop  offset="1" style="stop-color:#F15A29"/>
			</linearGradient>
			<path class="st7" d="M152.37,390.19L152,337.57l-12.27,5.06v-7.99c7.44-3.28,12.31-6.29,14.62-9.04l9.5-1.47v71.04L152.37,390.19
				z"/>
		</g>
		
			<linearGradient id="SVGID_2_" gradientUnits="userSpaceOnUse" x1="214.5097" y1="418.6665" x2="140.8316" y2="354.8321" gradientTransform="matrix(0.9998 -0.0178 0.0178 0.9998 -6.7967 5.5634)">
			<stop  offset="2.237672e-07" style="stop-color:#FBB040"/>
			<stop  offset="0.0618" style="stop-color:#FAA63C"/>
			<stop  offset="0.2499" style="stop-color:#F68C34"/>
			<stop  offset="0.4391" style="stop-color:#F4782F"/>
			<stop  offset="0.6276" style="stop-color:#F2682B"/>
			<stop  offset="0.8149" style="stop-color:#F15E29"/>
			<stop  offset="1" style="stop-color:#F15A29"/>
		</linearGradient>
		<path class="st8" d="M165.1,371.51c1.56,2.1,3.93,2.54,6.03,0.98c9.58-7.11,23.16-5.09,30.26,4.49
			c7.11,9.58,5.09,23.16-4.49,30.26c-9.58,7.11-23.16,5.09-30.26-4.49c0,0,0,0,0,0l6.41-4.76l-20.64-8.54l0.22,23.69l6.41-4.76
			c0,0,0,0,0,0c10.21,13.77,29.72,16.66,43.49,6.45c13.77-10.21,16.66-29.72,6.45-43.49c-10.21-13.77-29.72-16.66-43.49-6.45
			C163.4,366.45,163.55,369.41,165.1,371.51z"/>
	</g>
</g>
<g id="Layer_8" class="st0">
	<g class="st1">
		<linearGradient id="SVGID_3_" gradientUnits="userSpaceOnUse" x1="394.2493" y1="447.0976" x2="182.3343" y2="301.0551">
			<stop  offset="2.237672e-07" style="stop-color:#F9ED32"/>
			<stop  offset="0.0153" style="stop-color:#F8E534"/>
			<stop  offset="0.1194" style="stop-color:#F5C239"/>
			<stop  offset="0.2282" style="stop-color:#F2A23B"/>
			<stop  offset="0.3396" style="stop-color:#F0883A"/>
			<stop  offset="0.4544" style="stop-color:#F07239"/>
			<stop  offset="0.5735" style="stop-color:#EF5F38"/>
			<stop  offset="0.6989" style="stop-color:#EF4F37"/>
			<stop  offset="0.8347" style="stop-color:#EF4436"/>
			<stop  offset="1" style="stop-color:#EF4136"/>
		</linearGradient>
		<path class="st9" d="M283.85,393.37c-9.61,0-19.22-0.92-28.33-3.3c-4.82-1.46-9.61-3.37-13.47-5.83c-3.83-2.38-7.7-5.21-9.61-9.12
			c-0.96-1.38-1.91-3.37-1.91-5.29c0-1.38,0-3.37,0.95-5.29c0.96-1.92,1.92-3.83,3.86-5.75c1.42-1.46,3.33-2.91,5.28-4.29
			c3.83-2.45,8.15-4.83,12.98-6.29c4.79-1.92,10.07-3.37,14.89-3.83c9.61-1.92,20.17-2.38,30.24-1.46
			c5.28,0.54,10.11,1.46,15.39,2.91c4.82,1.46,9.61,3.37,13.93,5.75c4.82,2.46,8.65,5.29,11.52,9.13c0.95,2.45,2.41,4.83,2.91,6.75
			c0,2.91,0,5.29-1,7.67c-0.96,1.92-2.41,4.37-3.83,6.29c-1.92,1.92-3.86,3.83-5.78,5.29c-4.33,2.84-9.11,5.29-13.93,7.21
			c4.83-1.92,9.61-3.83,14.43-6.75c2.41-1.46,4.33-2.91,6.24-5.29c1.91-1.92,2.87-3.83,4.33-6.75c0.95-1.92,1.46-4.75,0.95-7.67
			c-0.46-2.91-1.41-5.29-2.41-7.67c-1.91-1.92-3.33-4.37-5.74-5.75c-1.95-1.99-3.87-3.91-6.24-4.83c-4.82-3.37-9.61-4.83-14.43-6.75
			c-5.28-1.46-10.57-2.91-15.39-3.83c-11.02-1.46-21.59-1.46-32.19-0.46c-5.28,0.92-10.57,1.92-15.85,3.83
			c-5.28,1.46-10.56,3.37-15.35,6.21c-1.95,1.92-4.33,3.37-6.74,5.83c-1.91,1.84-3.82,3.83-5.28,6.67
			c-1.45,2.91-2.41,6.29-2.41,9.66c0.5,3.37,1.46,6.67,2.87,9.58c1.45,2.38,3.37,5.29,5.78,7.21c1.91,1.92,4.32,3.83,6.73,5.29
			c4.79,3.37,9.61,5.29,15.35,7.21c10.1,3.37,20.67,4.76,31.23,5.29v10.05l27.41-16.33l-27.41-15.87V393.37z"/>
	</g>
</g>
<g id="Layer_7" class="st0">
</g>
<g id="Layer_12">
	<g>
		<linearGradient id="SVGID_4_" gradientUnits="userSpaceOnUse" x1="260.7749" y1="303.0934" x2="100.3591" y2="336.3156">
			<stop  offset="0.133" style="stop-color:#FBB040"/>
			<stop  offset="0.3377" style="stop-color:#E8903B"/>
			<stop  offset="0.7899" style="stop-color:#CA4931"/>
			<stop  offset="0.9779" style="stop-color:#BE1E2D"/>
		</linearGradient>
		<path class="st10" d="M152.36,442.41l-0.53-226.38l-58.46,22.77v-35.94c35.45-14.76,58.67-28.31,69.65-40.65l45.26-6.59V475.1
			L152.36,442.41z"/>
	</g>
	
		<linearGradient id="SVGID_5_" gradientUnits="userSpaceOnUse" x1="890.1861" y1="323.1741" x2="-125.1789" y2="537.0042" gradientTransform="matrix(0.9998 -0.0178 0.0178 0.9998 -6.7967 5.5634)">
		<stop  offset="0.1042" style="stop-color:#F7941D"/>
		<stop  offset="0.2496" style="stop-color:#F58326"/>
		<stop  offset="0.5254" style="stop-color:#F26331"/>
		<stop  offset="0.7423" style="stop-color:#F04B35"/>
		<stop  offset="0.8719" style="stop-color:#EF4136"/>
	</linearGradient>
	<path class="st11" d="M217.59,352.68c8,10.49,20.22,12.68,31.01,4.9c49.27-35.54,119.08-25.47,155.63,22.44
		c36.55,47.91,26.19,115.79-23.07,151.33c-49.27,35.54-119.08,25.47-155.63-22.43c0,0,0,0,0,0l32.99-23.79l-106.15-42.72
		l1.12,118.48l32.99-23.79c0,0,0,0,0,0c52.52,68.85,152.85,83.31,223.65,32.24s85.68-148.63,33.16-217.47
		c-52.52-68.85-152.85-83.31-223.65-32.24C208.84,327.39,209.59,342.19,217.59,352.68z"/>
	<g>
		<rect x="139.3" y="634.09" class="st12" width="348.45" height="51.57"/>
		<path class="st13" d="M149.57,637.14c2.42-0.46,7.48-0.9,12.22-0.9c6.09,0,9.44,0.66,12.37,2.29c2.85,1.44,4.99,4.12,4.99,7.95
			c0,3.62-2.29,6.97-6.94,8.6v0.14c4.36,1.09,8.42,4.39,8.42,10.02c0,3.75-1.81,6.65-4.4,8.63c-3.1,2.37-8.17,3.62-16.37,3.62
			c-4.74,0-8.21-0.32-10.29-0.6V637.14z M158.09,652.74h3.92c5.63,0,8.42-2.12,8.42-5.25c0-3.55-3-4.99-7.66-4.99
			c-2.49,0-3.83,0.16-4.69,0.32V652.74z M158.09,670.94c1.06,0.18,2.41,0.2,4.32,0.2c4.74,0,9.12-1.54,9.12-6.27
			c0-4.38-4.18-6.01-9.48-6.01h-3.96V670.94z"/>
		<path class="st13" d="M216.97,636.6v40.44h-8.6V636.6H216.97z"/>
		<path class="st13" d="M255.49,643.64H242.9v-7.03h33.95v7.03h-12.75v33.41h-8.61V643.64z"/>
		<path class="st13" d="M302.74,636.6h26.33v6.95h-17.72v9.91h16.51v6.95h-16.51v16.63h-8.6V636.6z"/>
		<path class="st13" d="M357.52,636.6h8.61v33.24h18.3v7.19h-26.9V636.6z"/>
		<path class="st13" d="M419.83,636.6v40.44h-8.61V636.6H419.83z"/>
		<path class="st13" d="M449.44,637.11c2.94-0.46,7.09-0.86,13.12-0.86c5.84,0,9.99,1.24,12.67,3.36c2.57,1.96,4.37,5.25,4.37,9.28
			c0,3.78-1.24,7.15-3.69,9.35c-3.25,3-8.07,4.42-14.01,4.42c-1.53,0-2.91-0.1-3.94-0.32v14.71h-8.52V637.11z M457.97,655.71
			c0.99,0.26,2.26,0.36,3.97,0.36c5.57,0,9.14-2.53,9.14-7.03c0-4.25-3.29-6.32-8.46-6.32c-2.29,0-3.86,0.18-4.66,0.34V655.71z"/>
	</g>
</g>
<g id="Layer_10" class="st0">
	<g class="st1">
		<path class="st14" d="M379.58,223.27c-1.71-1.79-3.44-2.62-5.98-2.62c-2.62,0-5.23,0.83-6.95,2.62l-18.16,18.04
			c-10.31-9.5-22.42-16.39-35.35-21.48c-12.11-5.24-25.93-7.86-39.68-7.86c-25.93,0-49.24,7.86-69.05,23.28
			c-18.98,15.57-32.8,36.37-38.03,61.31v1.79c0,0.83,0,1.65,0.89,3.45c1.72,0,1.72,0.83,3.44,0.83h28.47c1.72,0,3.44-0.83,3.44-3.44
			c5.23-8.68,6.94-14.74,8.66-16.4c6.05-11.16,14.65-19.84,25.93-25.9c11.21-6.06,23.31-8.68,36.25-8.68
			c18.98,0,35.35,6.06,50.07,19.97l-19.88,18.87c-2.61,1.79-2.61,3.44-2.61,6.06c0,3.44,0,5.23,2.61,6.88
			c0.89,1.79,3.44,2.62,6.05,2.62h63.89c2.54,0,4.26-0.83,5.98-2.62c2.61-1.65,3.51-3.44,3.51-6.88v-63.78
			C383.1,227.54,382.2,224.93,379.58,223.27L379.58,223.27z M374.43,338.85L374.43,338.85h-27.64c-1.65,0-3.44,1.79-3.44,3.44
			c-4.34,10.47-6.88,15.57-8.6,16.53c-6.05,11.16-14.72,19.84-25.93,25.9c-11.21,5.92-23.31,9.5-35.35,9.5
			c-9.56,0-18.16-1.79-26.75-5.23c-8.66-3.44-16.44-8.68-23.31-14.61l19.8-19.01c1.71-2.62,2.61-4.41,2.61-7.03
			c0-2.48-0.89-4.27-2.61-6.88c-1.72-0.83-3.44-2.62-6.88-2.62h-63.89c-2.62,0-4.34,1.79-6.06,2.62c-1.72,2.61-2.54,4.41-2.54,6.88
			v63.92c0,2.61,0.82,5.23,2.54,6.89c1.72,0.83,3.44,2.62,6.06,2.62c2.61,0,5.16-1.79,6.87-2.62l18.16-19.01
			c10.39,9.5,22.41,17.35,34.52,22.45c12.92,6.06,26.75,7.86,40.57,7.86c25.93,0,48.34-7.86,68.22-23.42
			c19.81-15.43,31.92-37.06,37.97-62.13c0.82-0.83,0.82-0.83,0.82-0.83c0-1.79-0.82-2.61-1.71-3.44
			C377.04,339.82,376.15,338.85,374.43,338.85L374.43,338.85z"/>
	</g>
</g>
<g id="Layer_5" class="st0">
	<g class="st1">
		<path class="st2" d="M194.64,354.03c0-0.01,0-0.02,0-0.03c0-60.59,49.33-109.89,109.97-109.89c19.55,0,38.59,5.13,55.07,14.85
			c11.44,6.75,26.17,2.94,32.9-8.5c6.74-11.43,2.94-26.16-8.49-32.9c-23.87-14.07-51.35-21.51-79.48-21.51
			c-87.14,0-158.03,70.86-158.03,157.95c0,0.01,0,0.02,0,0.03h-40.62l64.62,107.77l64.62-107.77H194.64z"/>
		<path class="st2" d="M503.17,354.03l-64.62-107.77l-64.62,107.77h40.57c-0.01,60.63-49.3,109.94-109.88,109.94
			c-19.53,0-38.62-5.14-55.2-14.88c-11.43-6.71-26.16-2.88-32.88,8.56c-6.72,11.44-2.89,26.17,8.56,32.89
			c23.95,14.06,51.44,21.49,79.52,21.49c87.08,0,157.93-70.88,157.94-158H503.17z"/>
	</g>
</g>
<g id="Layer_11" class="st0">
	<g class="st1">
		<g>
			<path class="st3" d="M314.26,106.84l-40.45-6.99l5.78,12.79c-1.18,0.5-2.71,1.3-4.15,2.04c-1.45,0.73-2.9,1.48-4.24,2.42
				c-1.34,0.92-2.78,1.72-4.03,2.77l-3.79,3.11l-3.48,3.47c-0.6,0.56-1.09,1.23-1.62,1.85l-1.9,2.33c-0.81,0.92-1.42,1.99-2.11,2.99
				c-2.82,4-4.86,8.51-6.63,13.09l-1.09,3.53l-0.53,1.77l-0.38,1.81l-0.74,3.63l-0.42,3.69c-2.05,19.8,6.38,40.56,21.77,53.26
				c7.56,6.49,16.74,10.81,26.3,12.88c9.57,2.12,19.61,1.48,28.88-1.32c2.25-0.66,4.39-1.63,6.58-2.46l-7.41-16.4
				c-1.56,0.55-3.06,1.28-4.64,1.72c-6.51,1.93-13.52,2.43-20.26,0.92c-6.72-1.47-13.21-4.48-18.49-9.06l-1.98-1.71l-1.81-1.9
				c-1.29-1.19-2.22-2.7-3.36-4.03c-0.96-1.46-1.97-2.91-2.81-4.44c-0.75-1.59-1.71-3.09-2.26-4.77
				c-2.64-6.51-3.83-13.61-3.06-20.55l0.28-2.6l0.53-2.55l0.25-1.28l0.39-1.24l0.76-2.49c1.28-3.21,2.67-6.4,4.67-9.2
				c0.5-0.7,0.89-1.47,1.48-2.1l1.34-1.63c0.37-0.44,0.7-0.92,1.13-1.3l2.43-2.44l2.66-2.17c0.86-0.76,1.9-1.28,2.83-1.94
				c0.93-0.68,1.96-1.19,2.98-1.7c1.03-0.53,1.95-1.05,3.32-1.64l5.78,12.79L314.26,106.84z"/>
		</g>
		<g>
			<g>
				<g>
					<path class="st4" d="M313.37,224.91v-99.79l-20,8.87v-15.82c12.74-6.5,21.08-12.47,25.02-17.9l16.26-2.9v123.74L313.37,224.91z
						"/>
				</g>
			</g>
			<g class="st0">
				<path class="st5" d="M322.63,222.32v-99.79l-20,8.87v-15.82c12.74-6.5,21.08-12.47,25.02-17.9l16.26-2.9v123.74L322.63,222.32z"
					/>
			</g>
			<g class="st0">
				<path class="st6" d="M330.98,220.4v-99.79l-20,8.87v-15.82c12.73-6.5,21.08-12.47,25.02-17.9l16.26-2.9v123.74L330.98,220.4z"/>
			</g>
		</g>
		<g>
			<path class="st3" d="M334.55,154.46l19.52,1.39l-2.92-5.56c0.56-0.28,1.29-0.71,1.97-1.11c0.69-0.4,1.38-0.8,2.01-1.29
				c0.64-0.48,1.32-0.9,1.91-1.44l1.79-1.58l1.63-1.73c0.28-0.28,0.51-0.61,0.76-0.91l0.89-1.14c0.38-0.45,0.66-0.97,0.98-1.45
				c1.31-1.95,2.25-4.08,3.04-6.24l0.49-1.65l0.24-0.83l0.16-0.84l0.32-1.68l0.16-1.7c0.77-9.09-3.51-18.16-11.05-23.25
				c-3.7-2.62-8.17-4.17-12.79-4.69c-4.63-0.54-9.45,0.2-13.87,1.88c-1.08,0.4-2.09,0.94-3.14,1.41l3.74,7.13
				c0.74-0.32,1.46-0.72,2.21-0.99c3.11-1.17,6.47-1.71,9.73-1.32c3.24,0.37,6.4,1.45,8.99,3.3l0.97,0.69l0.89,0.78
				c0.63,0.48,1.1,1.13,1.66,1.68c0.48,0.62,0.98,1.23,1.4,1.9c0.38,0.69,0.85,1.33,1.14,2.07c1.34,2.84,1.99,6.02,1.69,9.21
				l-0.11,1.19l-0.23,1.18l-0.11,0.59l-0.17,0.58l-0.34,1.17c-0.58,1.51-1.21,3.03-2.15,4.39c-0.23,0.34-0.41,0.71-0.69,1.02
				l-0.62,0.8c-0.17,0.22-0.32,0.45-0.53,0.64l-1.14,1.22l-1.26,1.1c-0.41,0.38-0.9,0.66-1.34,1.01c-0.44,0.35-0.93,0.63-1.42,0.91
				c-0.49,0.28-0.93,0.56-1.58,0.89l-2.92-5.56L334.55,154.46z"/>
		</g>
		<g>
			<path class="st3" d="M334.72,159.19l20.93-3.51l-3.12,6.65c0.61,0.27,1.38,0.69,2.12,1.08c0.74,0.39,1.48,0.78,2.16,1.28
				c0.68,0.49,1.41,0.91,2.05,1.46l1.92,1.64l1.76,1.82c0.3,0.29,0.55,0.64,0.81,0.97l0.95,1.22c0.41,0.48,0.71,1.04,1.06,1.57
				c1.41,2.1,2.41,4.46,3.27,6.85l0.52,1.85l0.25,0.93l0.18,0.95l0.34,1.9l0.18,1.93c0.84,10.34-3.73,21.14-11.8,27.72
				c-3.97,3.36-8.75,5.58-13.7,6.63c-4.96,1.07-10.13,0.7-14.87-0.79c-1.15-0.35-2.25-0.87-3.37-1.31l4-8.53
				c0.8,0.29,1.56,0.68,2.37,0.92c3.34,1.03,6.94,1.32,10.43,0.55c3.48-0.74,6.86-2.29,9.63-4.66l1.04-0.88l0.95-0.98
				c0.68-0.62,1.17-1.4,1.78-2.09c0.51-0.76,1.04-1.51,1.5-2.31c0.41-0.83,0.91-1.6,1.22-2.48c1.43-3.39,2.12-7.09,1.8-10.71
				l-0.12-1.36l-0.25-1.33l-0.12-0.67l-0.19-0.65l-0.36-1.3c-0.62-1.68-1.31-3.35-2.31-4.82c-0.25-0.37-0.44-0.77-0.74-1.1
				l-0.67-0.86c-0.19-0.23-0.35-0.48-0.57-0.68l-1.23-1.28l-1.35-1.14c-0.44-0.4-0.97-0.67-1.44-1.02c-0.47-0.36-1-0.63-1.52-0.9
				c-0.52-0.28-0.99-0.56-1.69-0.87l-3.12,6.65L334.72,159.19z"/>
		</g>
	</g>
</g>
</svg>
