<svg xmlns="http://www.w3.org/2000/svg" viewBox="0 0 686 218" width="686" height="218">
	<style>
		tspan { white-space:pre }
		.shp0 { fill: #133444 } 
		.shp1 { fill: #c42370 } 
		.shp2 { fill: #1c4d6b } 
		.shp3 { fill: #000000 } 
		.shp4 { fill: #1d4259 } 
		.shp5 { fill: #4b6b9a } 
		.shp6 { fill: #343535 } 
		.shp7 { fill: #3e5578 } 
		.shp8 { fill: #6db2d8 } 
		.shp9 { fill: #335f8a } 
		.shp10 { fill: #529bba } 
		.shp11 { fill: #ffffff } 
	</style>
	<g id="Layer_2_1_">
		<g id="Layer_1-2">
			<g id="Layer_2-2">
				<g id="Layer_1-2-2">
					<path id="Layer" class="shp0" d="M11 121.7L15.9 119.6L75.9 93.5L140.8 121.7L116.4 172.1L56.8 180.5L12 132.1L11 121.7Z" />
					<path id="Layer" class="shp1" d="M127.3 90.7C116.6 77.8 101.4 69.4 84.8 67.2C84.4 67.2 84.1 67.1 83.7 67.1C78.5 66.5 73.3 66.5 68.1 67.1C67.7 67.1 67.4 67.2 67 67.2C50.4 69.4 35.2 77.8 24.5 90.7L24.5 90.7L21.8 95.2L17.3 102.7L14 108.2L14 108.2C14 108.4 13.9 108.5 13.8 108.6L13.8 108.7L21 113L67 140.2L75.9 145.4L75.9 80.4L67 84.4L67 74.7L75.9 70.7L84.8 74.7L130 95.2L127.3 90.7Z" />
					<path id="Layer" class="shp2" d="M142.8 137.9C142.7 159.2 133.1 179.3 116.6 192.8C110.3 197.9 103.2 201.9 95.5 204.5C89.2 206.6 82.6 207.7 76 207.7C39 207.7 9.1 174.8 9.1 137.9C9.1 132.4 9.8 127 11.1 121.7L76 160.1L140.9 121.7C142.1 127 142.8 132.4 142.8 137.9Z" />
					<path id="Layer" class="shp3" d="M68.1 67L75.9 70.6L67 74.6L67 66.6L68.1 67Z" />
					<path id="Layer" class="shp3" d="M67 84.4L75.9 80.3L75.9 145.3L67 140.1L67 84.4Z" />
					<path id="Layer" class="shp4" d="M75.9 80.3L75.9 145.3L138.1 108.6L75.9 80.3Z" />
					<path id="Layer" class="shp5" d="M75.9 5.4L75.9 80.3L138.1 108.6L75.9 5.4Z" />
					<path id="Layer" class="shp6" d="M75.9 80.3L75.9 145.3L67 140.1L13.8 108.6L13.8 108.6C13.8 108.4 13.9 108.3 14 108.2L14 108.2L21.8 95.3L67 74.8L67 84.6L75.9 80.3Z" />
					<path id="Layer" class="shp7" d="M75.9 80.3L75.9 145.3L67 140.1L13.8 108.6L13.7 108.6L13.8 108.5L67 84.4L75.9 80.3Z" />
					<path id="Layer" class="shp8" d="M75.9 5.4L75.9 80.3L13.7 108.6L75.9 5.4Z" />
					<path id="Layer" class="shp9" d="M50.7 202.4C51.6 202.8 52.6 203.2 53.5 203.6C52.6 203.2 51.7 202.8 50.7 202.4Z" />
					<path id="Layer" class="shp9" d="M53.5 203.5C54.4 203.9 55.4 204.2 56.4 204.5C55.4 204.2 54.5 203.9 53.5 203.5Z" />
					<path id="Layer" class="shp9" d="M58.9 205.3C59.7 205.5 60.4 205.7 61.1 205.9L58.9 205.3Z" />
					<path id="Layer" class="shp8" d="M11 121.7L75.9 160.1C75 165.9 73.5 171.6 71.2 177.1C66 189.7 55.5 202.9 35.2 192.8L35.2 192.8C18.7 179.3 9.1 159.1 9 137.8C9 132.4 9.7 127 11 121.7Z" />
					<path id="Layer" class="shp10" d="M116.4 192.9L116.4 192.9C116 193.2 116.4 192.9 115.1 194L114.5 194.4L113.6 195L112.5 195.8C113.6 195 111.6 196.4 111.2 196.7C110.8 196.9 110.5 197.1 110.1 197.4L109.4 197.9C109.2 198 108.9 198.2 108.7 198.4C108.7 198.4 108.4 198.7 108.3 198.7C108.7 198.4 107.8 198.9 107.4 199.2C106.9 199.4 106.5 199.6 106.1 199.9L104.7 200.6L104.1 200.9C103.7 201.1 103.9 200.9 103.5 201.2C103.1 201.5 102.6 201.6 102.1 201.9C101.6 202.2 102.1 201.9 100.4 202.7C102.1 201.9 100.4 202.7 99.5 203.1C100.4 202.7 97.9 203.7 96.8 204.1C96.4 204.2 94.2 204.9 93.8 205C93.4 205.1 92.9 205.3 92.5 205.4C91.7 205.6 91 205.8 90.3 206C90 206.1 89.7 206.1 89.5 206.2L89 206.3L87.8 206.6C87.4 206.7 87.1 206.7 86.7 206.8C86.3 206.9 86 206.9 85.7 207C85.4 207.1 84.9 207.1 84.6 207.2C84.4 207.2 84.2 207.2 84.1 207.3L83.3 207.4L82.9 207.4C82.6 207.4 82.3 207.5 82 207.5C81.7 207.5 81.2 207.6 80.8 207.6L70.6 207.6C70.2 207.6 69.8 207.5 69.4 207.5C69.1 207.5 68.8 207.5 68.5 207.4L68.1 207.4C67.8 207.4 67.5 207.3 67.3 207.3C67.1 207.3 66.9 207.3 66.8 207.2C66.4 207.2 66.1 207.1 65.7 207C65.4 207 65 206.9 64.7 206.8C64.4 206.7 64 206.7 63.6 206.6L62.4 206.3L61.9 206.2C61.6 206.2 61.3 206.1 61.1 206C60.3 205.8 59.6 205.6 58.9 205.4L57.6 205C57.2 204.9 56.8 204.8 56.4 204.6C55.4 204.3 54.5 203.9 53.5 203.6C52.5 203.3 51.6 202.8 50.7 202.4C50.3 202.2 49.8 202 49.3 201.8C48.8 201.6 48.3 201.4 47.9 201.1C47.4 200.9 47 200.7 46.6 200.4L46.6 200.4C46.2 200.2 45.7 199.9 45.3 199.7C44.9 199.5 44.6 199.3 44.3 199.1C43.3 198.5 42.7 198.1 43.3 198.5L42.7 198.1L41.6 197.4L41.2 197.2L40.2 196.5C39.8 196.2 39.4 196 39 195.7C38.6 195.4 38.1 195.1 37.7 194.8C37.3 194.5 36.9 194.1 36.6 193.9L36.2 193.6C35.8 193.4 35.5 193.1 35.2 192.8L35.2 192.8C55.5 202.9 65.9 189.5 71.1 177C73.3 171.5 74.9 165.8 75.8 160C76.7 165.9 78.2 171.7 80.5 177.2C85.9 189.6 96.1 202.9 116.4 192.9Z" />
					<path id="Layer" class="shp9" d="M90.7 205.9C91.5 205.7 92.2 205.5 92.9 205.3L90.7 205.9Z" />
					<path id="Layer" class="shp9" d="M95.4 204.5C96.4 204.2 97.3 203.9 98.3 203.5C97.3 203.9 96.4 204.2 95.4 204.5Z" />
					<path id="Layer" class="shp9" d="M98.1 203.6C99 203.2 100.2 202.8 101.1 202.3C100.1 202.8 99 203.2 98.1 203.6Z" />
					<path id="Layer" class="shp5" d="M142.8 137.9C142.7 159.2 133.1 179.3 116.6 192.8C96.3 202.9 85.8 189.6 80.6 177.1C78.4 171.6 76.8 165.9 75.9 160.1L140.8 121.7C142.1 127 142.8 132.4 142.8 137.9Z" />
				</g>
			</g>
			<path id="Layer" fill-rule="evenodd" class="shp8" d="M192.4 205.7L192.4 58.8L214.4 58.8L214.4 69.2C223.1 60.5 232.9 56.2 243.9 56.2C257 56.2 267.8 61 276.2 70.7C284.8 80.3 289.1 92.3 289.1 106.9C289.1 121.2 284.8 133 276.3 142.5C268.3 151.7 256.5 156.9 244.3 156.7C233.2 156.7 223.2 152.2 214.4 143.3L214.4 205.7L192.4 205.7ZM259.3 84.6C254.7 79 247.7 75.8 240.4 75.9C232.3 75.9 225.8 78.7 220.8 84.3C215.8 89.9 213.3 97.3 213.3 106.4C213.3 115.3 215.8 122.7 220.8 128.5C225.8 134.3 232.3 137 240.3 137C247.6 137.2 254.5 134 259.1 128.4C264.1 122.7 266.7 115.5 266.7 106.9C266.7 97.8 264.2 90.4 259.3 84.6Z" />
			<path id="Layer" fill-rule="evenodd" class="shp8" d="M307.9 105.7C307.7 92.5 313 79.7 322.6 70.6C332.1 61.1 345.1 55.9 358.5 56.1C372.7 56.1 384.7 61 394.6 70.7C404.5 80.4 409.2 92.3 409.2 106.4C409.2 120.7 404.3 132.6 394.5 142.2C384.7 151.8 372.5 156.6 358.1 156.6C343.7 156.6 331.9 151.7 322.3 142C312.7 132.3 307.9 120.2 307.9 105.7ZM330.4 106.1C330.4 115.6 332.9 123.1 338 128.7C343.1 134.3 350.1 137.1 358.6 137.1C367.1 137.1 374.1 134.3 379.2 128.8C384.3 123.3 386.9 115.9 386.9 106.6C386.9 97.3 384.3 90 379.2 84.4C374.1 78.8 367.1 76 358.6 76C350.1 76 343.4 78.8 338.2 84.4C333 90 330.4 97.2 330.4 106.1Z" />
			<path id="Layer" class="shp8" d="M426.6 58.8L448.6 58.8L448.6 67.3C452.6 63.1 456.2 60.2 459.3 58.6C462.8 56.9 466.7 56.1 470.6 56.2C476.4 56.2 482.4 58.1 488.8 61.9L478.7 82C474.5 79 470.5 77.5 466.5 77.5C454.5 77.5 448.5 86.5 448.5 104.6L448.5 153.9L426.5 153.9C426.5 153.9 426.6 58.8 426.6 58.8Z" />
			<path id="Layer" class="shp8" d="M530.1 79.3L530.1 153.9L508.1 153.9L508.1 79.3L498.7 79.3L498.7 58.8L508.1 58.8L508.1 23.9L530.1 23.9L530.1 58.8L547.2 58.8L547.2 79.3L530.1 79.3Z" />
			<path id="Layer" class="shp8" d="M558.8 19.2C558.8 15.4 560.3 11.8 563 9.2C568.6 3.6 577.7 3.6 583.3 9.2C586.1 11.8 587.6 15.5 587.5 19.3C587.6 23.1 586 26.8 583.3 29.5C580.7 32.3 577 33.8 573.2 33.7C569.4 33.8 565.7 32.2 563 29.5C560.2 26.8 558.7 23.1 558.8 19.2ZM584.1 58.8L584.1 153.9L562.1 153.9L562.1 58.8L584.1 58.8Z" />
			<path id="Layer" class="shp8" d="M667.2 75L649 84.7C646.1 78.8 642.6 75.9 638.4 75.9C636.5 75.9 634.6 76.6 633.2 77.9C631.8 79.2 631 81.1 631.1 83C631.1 86.6 635.3 90.3 643.8 93.8C655.5 98.8 663.3 103.4 667.3 107.7C671.3 112 673.4 117.6 673.4 124.8C673.6 133.6 669.8 142 663.2 147.8C656.7 153.7 648.2 156.8 639.4 156.6C623.4 156.6 612.2 148.8 605.5 133.3L624.3 124.6C626.9 129.2 628.9 132.1 630.3 133.3C632.9 135.7 636.3 137.1 639.9 137C647.3 137 651 133.6 651 126.8C651 122.9 648.1 119.2 642.4 115.9C640.2 114.8 638 113.7 635.8 112.7C633.6 111.7 631.3 110.6 629.1 109.5C622.7 106.4 618.2 103.3 615.6 100.1C612.3 96.1 610.6 91 610.6 84.8C610.6 76.5 613.4 69.7 619.1 64.3C624.8 58.9 632.4 56 640.2 56.2C652.2 56.1 661.2 62.4 667.2 75Z" />
		</g>
	</g>
	<g id="Layer">
		<g id="Layer">
			<g id="Layer">
				<g id="Layer">
					<path id="Layer" class="shp11" d="M640.3 192.3L643.2 192.3L643.2 175L640.3 175L640.3 192.3Z" />
				</g>
				<path id="Layer" class="shp11" d="M640.3 169.9L643.2 169.9L643.2 172.8L640.3 172.8L640.3 169.9Z" />
				<g id="Layer">
					<path id="Layer" class="shp11" d="M506.3 169.7C503.1 169.7 499.8 170.9 499.8 174C499.8 176.7 502.9 177.5 506.5 178.1C511.5 178.9 516.4 179.9 516.4 185.5C516.4 191.1 511 192.9 506.3 192.9C501.9 192.9 497.7 191.3 495.8 187.2L498.4 185.7C500 188.6 503.3 190.1 506.4 190.1C509.4 190.1 513.4 189.1 513.4 185.5C513.4 182.4 510 181.5 506.2 181C501.4 180.3 496.8 179.2 496.8 174.1C496.7 168.9 502 167.1 506.3 167.1C510 167.1 513.5 167.8 515.7 171.6L513.4 173.1C511.9 170.8 509.1 169.8 506.3 169.7Z" />
				</g>
				<g id="Layer">
					<path id="Layer" class="shp11" d="M521.6 167.6L521.6 177.8C523.1 175.5 525.4 174.7 527.7 174.7C532.6 174.7 535 178 535 182.8L535 192.4L532.1 192.4L532.1 182.8C532.1 179.4 530.3 177.4 527.1 177.4C523.9 177.4 521.6 179.9 521.6 183.1L521.6 192.4L518.7 192.4L518.7 167.6L521.6 167.6L521.6 167.6Z" />
				</g>
				<g id="Layer">
					<path id="Layer" fill-rule="evenodd" class="shp11" d="M552.9 189.2C551.5 191.6 548.9 192.7 546.4 192.7C541.4 192.7 537.4 189.2 537.4 183.5C537.4 177.8 541.4 174.4 546.4 174.5C549 174.5 551.6 175.7 552.9 178L552.9 174.8L555.7 174.8L555.7 192.3L553 192.4L552.9 189.2ZM540.3 183.7C540.3 187.6 543.1 190.1 546.6 190.1C555 190.1 555 177.3 546.6 177.3C543.1 177.3 540.3 179.8 540.3 183.7Z" />
				</g>
				<g id="Layer">
					<path id="Layer" fill-rule="evenodd" class="shp11" d="M561.3 174.9L561.4 178.3C562.8 176 565.4 174.6 568.1 174.6C573.1 174.7 576.8 178.3 576.8 183.6C576.8 189.1 573.1 192.7 567.9 192.7C565.4 192.7 562.7 191.6 561.3 189.2L561.3 200.6L558.5 200.6L558.5 174.9L561.3 174.9ZM574 183.7C574 179.8 571.4 177.4 567.8 177.4C564.1 177.4 561.7 180.1 561.7 183.7C561.7 187.3 564.3 190 567.8 190C571.3 190 574 187.6 574 183.7Z" />
				</g>
				<g id="Layer">
					<path id="Layer" fill-rule="evenodd" class="shp11" d="M587.9 192.6C582.5 192.6 578.7 189 578.7 183.5C578.7 178.2 582.5 174.4 587.8 174.4C593.2 174.4 597.2 177.7 596.6 184.7L581.7 184.7C582 187.9 584.7 189.9 588 189.9C590 189.9 592.4 189.1 593.6 187.7L595.5 189.5C593.7 191.6 590.7 192.6 587.9 192.6ZM587.9 177.1C584.9 177.1 582.2 178.9 581.7 182.3L593.8 182.3C593.7 178.9 591.3 177.1 587.9 177.1Z" />
				</g>
				<g id="Layer">
					<path id="Layer" class="shp11" d="M608.8 169.7C605.6 169.7 602.3 170.9 602.3 174C602.3 176.7 605.4 177.5 609 178.1C614 178.9 618.9 179.9 618.9 185.5C618.9 191.1 613.5 192.9 608.8 192.9C604.4 192.9 600.2 191.3 598.3 187.2L600.9 185.7C602.5 188.6 605.8 190.1 608.9 190.1C611.9 190.1 615.9 189.1 615.9 185.5C615.9 182.4 612.5 181.5 608.7 181C603.9 180.3 599.3 179.2 599.3 174.1C599.2 168.9 604.5 167.1 608.8 167.1C612.5 167.1 616 167.8 618.2 171.6L615.9 173.1C614.4 170.8 611.5 169.8 608.8 169.7Z" />
				</g>
				<g id="Layer">
					<path id="Layer" class="shp11" d="M624 167.5L624 177.7C625.5 175.4 627.8 174.6 630.1 174.6C635 174.6 637.4 177.9 637.4 182.7L637.4 192.3L634.5 192.3L634.5 182.7C634.5 179.3 632.7 177.3 629.5 177.3C626.3 177.3 624 179.8 624 183L624 192.3L621.1 192.3L621.1 167.5L624 167.5L624 167.5Z" />
				</g>
				<g id="Layer">
					<path id="Layer" class="shp11" d="M648.8 192.4L648.8 192.4L648.7 192.4L648.8 192.4Z" />
					<path id="Layer" class="shp11" d="M652.2 173.6C652.2 171 653.4 169.8 655.3 169.8L655.4 169.8L656.1 167.3C655.8 167.3 655.5 167.2 655.3 167.2C651.6 167.2 649.4 169.5 649.4 173.5L649.4 174.9L646 174.9L646 177.5L649.4 177.5L649.4 192.3L652.3 192.3L652.3 177.5L655.8 177.5L655.8 175L652.3 175L652.3 173.6L652.2 173.6Z" />
				</g>
				<path id="Layer" class="shp11" d="M667 189.9C666.8 189.9 666.5 190 666.3 190C664.2 190 663.5 188.7 663.5 186.6L663.5 177.6L667.2 177.6L667.2 175L663.5 175L663.5 169.7L660.6 170L660.6 175L657.1 175L657.1 177.5L660.6 177.5L660.6 186.5C660.6 190.4 662.4 192.6 666.1 192.5C666.6 192.5 667 192.4 667.5 192.3L667 189.9Z" />
			</g>
		</g>
		<g id="Layer">
			<path id="Layer" fill-rule="evenodd" class="shp11" d="M465.3 181.4C466.4 182.5 467 184.1 467 186C467 187.1 466.8 188.1 466.3 189C465.8 189.9 465.1 190.7 464.3 191.3C463.4 192 462.4 192.5 461.2 192.8C460 193.1 458.7 193.3 457.2 193.3L449.4 193.3L449.4 167.3L457.3 167.3C458.3 167.3 459.3 167.4 460.3 167.6C461.3 167.8 462.2 168.2 463 168.7C463.8 169.2 464.5 169.9 465 170.8C465.5 171.7 465.8 172.8 465.8 174.1C465.8 175.5 465.4 176.8 464.5 177.8C463.8 178.6 463 179.2 462 179.6C463.2 179.9 464.3 180.5 465.3 181.4ZM462.5 174.2C462.5 173.5 462.4 172.8 462.1 172.3C461.8 171.8 461.4 171.3 460.9 171C460.4 170.7 459.8 170.4 459.1 170.3C458.4 170.2 457.6 170.1 456.8 170.1L452.6 170.1L452.6 178.5L457.5 178.5C458.1 178.5 458.7 178.4 459.3 178.3C459.9 178.2 460.5 177.9 461 177.6C461.5 177.3 461.9 176.8 462.2 176.3C462.4 175.8 462.6 175.1 462.5 174.2ZM452.7 181.2L452.7 190.6L457.2 190.6C458.1 190.6 459 190.5 459.8 190.3C460.6 190.2 461.3 189.9 461.9 189.5C462.5 189.1 462.9 188.6 463.3 188C463.6 187.5 463.8 186.7 463.8 185.9C463.8 184.3 463.3 183.2 462.2 182.4C461.1 181.6 459.5 181.2 457.5 181.2L452.7 181.2Z" />
			<path id="Layer" class="shp11" d="M483.3 176L478.2 189.8L472.6 176L469.3 176L476.6 193.1L475.3 196.5C475 197.4 474.5 198.1 474.1 198.6C473.7 199.1 473.1 199.3 472.3 199.3C471.7 199.3 471.1 199.2 470.6 199L470.3 198.9L470 201.7L470.2 201.7C470.9 201.8 471.7 201.9 472.4 201.9C473.9 201.9 475.1 201.5 476 200.7C476.8 199.9 477.5 198.8 478 197.5L486.5 176L483.3 176Z" />
		</g>
	</g>
</svg>