<?xml version="1.0" encoding="utf-8"?>
<!-- Generator: Adobe Illustrator 24.1.2, SVG Export Plug-In . SVG Version: 6.00 Build 0)  -->
<svg version="1.1" id="Layer_1" xmlns="http://www.w3.org/2000/svg" xmlns:xlink="http://www.w3.org/1999/xlink" x="0px" y="0px"
	 viewBox="0 0 685.1 217.1" style="enable-background:new 0 0 685.1 217.1;" xml:space="preserve">
<style type="text/css">
	.st0{fill:#133444;}
	.st1{fill:#C42370;}
	.st2{fill:#1C4D6B;}
	.st3{fill:#1D4259;}
	.st4{fill:#4B6B9A;}
	.st5{fill:#343535;}
	.st6{fill:#3E5578;}
	.st7{fill:#6DB2D8;}
	.st8{fill:#335F8A;}
	.st9{fill:#529BBA;}
</style>
<g id="Layer_2_1_">
	<g id="Layer_1-2">
		<g id="Layer_2-2">
			<g id="Layer_1-2-2">
				<polygon class="st0" points="11,121.7 15.9,119.6 75.9,93.5 140.8,121.7 116.4,172.1 56.8,180.5 12,132.1 				"/>
				<path class="st1" d="M127.3,90.7c-10.7-12.9-25.9-21.3-42.5-23.5c-0.4,0-0.7-0.1-1.1-0.1c-5.2-0.6-10.4-0.6-15.6,0
					c-0.4,0-0.7,0.1-1.1,0.1c-16.6,2.2-31.8,10.6-42.5,23.5l0,0l-2.7,4.5l-4.5,7.5l-3.3,5.5l0,0c0,0.2-0.1,0.3-0.2,0.4v0.1L21,113
					l46,27.2l8.9,5.2v-65l-8.9,4v-9.7l8.9-4l8.9,4L130,95.2L127.3,90.7z"/>
				<path class="st2" d="M142.8,137.9c-0.1,21.3-9.7,41.4-26.2,54.9c-6.3,5.1-13.4,9.1-21.1,11.7c-6.3,2.1-12.9,3.2-19.5,3.2
					c-37,0-66.9-32.9-66.9-69.8c0-5.5,0.7-10.9,2-16.2L76,160.1l64.9-38.4C142.1,127,142.8,132.4,142.8,137.9z"/>
				<polygon points="68.1,67 75.9,70.6 67,74.6 67,66.6 				"/>
				<polygon points="67,84.4 75.9,80.3 75.9,145.3 67,140.1 				"/>
				<polygon class="st3" points="75.9,80.3 75.9,145.3 138.1,108.6 				"/>
				<polygon class="st4" points="75.9,5.4 75.9,80.3 138.1,108.6 				"/>
				<path class="st5" d="M75.9,80.3v65l-8.9-5.2l-53.2-31.5l0,0c0-0.2,0.1-0.3,0.2-0.4l0,0l7.8-12.9L67,74.8v9.8L75.9,80.3z"/>
				<polygon class="st6" points="75.9,80.3 75.9,145.3 67,140.1 13.8,108.6 13.7,108.6 13.8,108.5 67,84.4 				"/>
				<polygon class="st7" points="75.9,5.4 75.9,80.3 13.7,108.6 				"/>
				<path class="st8" d="M50.7,202.4c0.9,0.4,1.9,0.8,2.8,1.2C52.6,203.2,51.7,202.8,50.7,202.4z"/>
				<path class="st8" d="M53.5,203.5c0.9,0.4,1.9,0.7,2.9,1C55.4,204.2,54.5,203.9,53.5,203.5z"/>
				<path class="st8" d="M58.9,205.3c0.8,0.2,1.5,0.4,2.2,0.6L58.9,205.3z"/>
				<path class="st7" d="M11,121.7l64.9,38.4c-0.9,5.8-2.4,11.5-4.7,17c-5.2,12.6-15.7,25.8-36,15.7l0,0
					c-16.5-13.5-26.1-33.7-26.2-55C9,132.4,9.7,127,11,121.7z"/>
				<path class="st9" d="M116.4,192.9L116.4,192.9c-0.4,0.3,0,0-1.3,1.1l-0.6,0.4l-0.9,0.6l-1.1,0.8c1.1-0.8-0.9,0.6-1.3,0.9
					c-0.4,0.2-0.7,0.4-1.1,0.7l-0.7,0.5c-0.2,0.1-0.5,0.3-0.7,0.5c0,0-0.3,0.3-0.4,0.3c0.4-0.3-0.5,0.2-0.9,0.5
					c-0.5,0.2-0.9,0.4-1.3,0.7l-1.4,0.7l-0.6,0.3c-0.4,0.2-0.2,0-0.6,0.3s-0.9,0.4-1.4,0.7s0,0-1.7,0.8c1.7-0.8,0,0-0.9,0.4
					c0.9-0.4-1.6,0.6-2.7,1c-0.4,0.1-2.6,0.8-3,0.9s-0.9,0.3-1.3,0.4c-0.8,0.2-1.5,0.4-2.2,0.6c-0.3,0.1-0.6,0.1-0.8,0.2l-0.5,0.1
					l-1.2,0.3c-0.4,0.1-0.7,0.1-1.1,0.2s-0.7,0.1-1,0.2s-0.8,0.1-1.1,0.2c-0.2,0-0.4,0-0.5,0.1l-0.8,0.1h-0.4
					c-0.3,0-0.6,0.1-0.9,0.1s-0.8,0.1-1.2,0.1H70.6c-0.4,0-0.8-0.1-1.2-0.1c-0.3,0-0.6,0-0.9-0.1h-0.4c-0.3,0-0.6-0.1-0.8-0.1
					c-0.2,0-0.4,0-0.5-0.1c-0.4,0-0.7-0.1-1.1-0.2c-0.3,0-0.7-0.1-1-0.2c-0.3-0.1-0.7-0.1-1.1-0.2l-1.2-0.3l-0.5-0.1
					c-0.3,0-0.6-0.1-0.8-0.2c-0.8-0.2-1.5-0.4-2.2-0.6l-1.3-0.4c-0.4-0.1-0.8-0.2-1.2-0.4c-1-0.3-1.9-0.7-2.9-1s-1.9-0.8-2.8-1.2
					c-0.4-0.2-0.9-0.4-1.4-0.6c-0.5-0.2-1-0.4-1.4-0.7c-0.5-0.2-0.9-0.4-1.3-0.7l0,0c-0.4-0.2-0.9-0.5-1.3-0.7
					c-0.4-0.2-0.7-0.4-1-0.6c-1-0.6-1.6-1-1-0.6l-0.6-0.4l-1.1-0.7l-0.4-0.2l-1-0.7c-0.4-0.3-0.8-0.5-1.2-0.8s-0.9-0.6-1.3-0.9
					s-0.8-0.7-1.1-0.9l-0.4-0.3c-0.4-0.2-0.7-0.5-1-0.8l0,0c20.3,10.1,30.7-3.3,35.9-15.8c2.2-5.5,3.8-11.2,4.7-17
					c0.9,5.9,2.4,11.7,4.7,17.2C85.9,189.6,96.1,202.9,116.4,192.9z"/>
				<path class="st8" d="M90.7,205.9c0.8-0.2,1.5-0.4,2.2-0.6L90.7,205.9z"/>
				<path class="st8" d="M95.4,204.5c1-0.3,1.9-0.6,2.9-1C97.3,203.9,96.4,204.2,95.4,204.5z"/>
				<path class="st8" d="M98.1,203.6c0.9-0.4,2.1-0.8,3-1.3C100.1,202.8,99,203.2,98.1,203.6z"/>
				<path class="st4" d="M142.8,137.9c-0.1,21.3-9.7,41.4-26.2,54.9c-20.3,10.1-30.8-3.2-36-15.7c-2.2-5.5-3.8-11.2-4.7-17
					l64.9-38.4C142.1,127,142.8,132.4,142.8,137.9z"/>
			</g>
		</g>
		<path class="st7" d="M214.4,205.7h-22V58.8h22v10.4c8.7-8.7,18.5-13,29.5-13c13.1,0,23.9,4.8,32.3,14.5
			c8.6,9.6,12.9,21.6,12.9,36.2c0,14.3-4.3,26.1-12.8,35.6c-8,9.2-19.8,14.4-32,14.2c-11.1,0-21.1-4.5-29.9-13.4V205.7L214.4,205.7z
			 M266.7,106.9c0-9.1-2.5-16.5-7.4-22.3c-4.6-5.6-11.6-8.8-18.9-8.7c-8.1,0-14.6,2.8-19.6,8.4s-7.5,13-7.5,22.1
			c0,8.9,2.5,16.3,7.5,22.1c5,5.8,11.5,8.5,19.5,8.5c7.3,0.2,14.2-3,18.8-8.6C264.1,122.7,266.7,115.5,266.7,106.9L266.7,106.9z"/>
		<path class="st7" d="M307.9,105.7c-0.2-13.2,5.1-26,14.7-35.1c9.5-9.5,22.5-14.7,35.9-14.5c14.2,0,26.2,4.9,36.1,14.6
			s14.6,21.6,14.6,35.7c0,14.3-4.9,26.2-14.7,35.8s-22,14.4-36.4,14.4s-26.2-4.9-35.8-14.6S307.9,120.2,307.9,105.7z M330.4,106.1
			c0,9.5,2.5,17,7.6,22.6c5.1,5.6,12.1,8.4,20.6,8.4s15.5-2.8,20.6-8.3s7.7-12.9,7.7-22.2s-2.6-16.6-7.7-22.2S367.1,76,358.6,76
			s-15.2,2.8-20.4,8.4S330.4,97.2,330.4,106.1z"/>
		<path class="st7" d="M426.6,58.8h22v8.5c4-4.2,7.6-7.1,10.7-8.7c3.5-1.7,7.4-2.5,11.3-2.4c5.8,0,11.8,1.9,18.2,5.7L478.7,82
			c-4.2-3-8.2-4.5-12.2-4.5c-12,0-18,9-18,27.1v49.3h-22C426.5,153.9,426.6,58.8,426.6,58.8z"/>
		<path class="st7" d="M530.1,79.3v74.6h-22V79.3h-9.4V58.8h9.4V23.9h22v34.9h17.1v20.5H530.1z"/>
		<path class="st7" d="M558.8,19.2c0-3.8,1.5-7.4,4.2-10c5.6-5.6,14.7-5.6,20.3,0c2.8,2.6,4.3,6.3,4.2,10.1
			c0.1,3.8-1.5,7.5-4.2,10.2c-2.6,2.8-6.3,4.3-10.1,4.2c-3.8,0.1-7.5-1.5-10.2-4.2C560.2,26.8,558.7,23.1,558.8,19.2z M584.1,58.8
			v95.1h-22V58.8H584.1z"/>
		<path class="st7" d="M667.2,75L649,84.7c-2.9-5.9-6.4-8.8-10.6-8.8c-1.9,0-3.8,0.7-5.2,2c-1.4,1.3-2.2,3.2-2.1,5.1
			c0,3.6,4.2,7.3,12.7,10.8c11.7,5,19.5,9.6,23.5,13.9s6.1,9.9,6.1,17.1c0.2,8.8-3.6,17.2-10.2,23c-6.5,5.9-15,9-23.8,8.8
			c-16,0-27.2-7.8-33.9-23.3l18.8-8.7c2.6,4.6,4.6,7.5,6,8.7c2.6,2.4,6,3.8,9.6,3.7c7.4,0,11.1-3.4,11.1-10.2
			c0-3.9-2.9-7.6-8.6-10.9c-2.2-1.1-4.4-2.2-6.6-3.2s-4.5-2.1-6.7-3.2c-6.4-3.1-10.9-6.2-13.5-9.4c-3.3-4-5-9.1-5-15.3
			c0-8.3,2.8-15.1,8.5-20.5c5.7-5.4,13.3-8.3,21.1-8.1C652.2,56.1,661.2,62.4,667.2,75z"/>
	</g>
</g>
<g>
	<g>
		<g>
			<g>
				<path d="M640.3,192.3h2.9v-17.3h-2.9V192.3z"/>
			</g>
			<rect x="640.3" y="169.9" width="2.9" height="2.9"/>
			<g>
				<path d="M506.3,169.7c-3.2,0-6.5,1.2-6.5,4.3c0,2.7,3.1,3.5,6.7,4.1c5,0.8,9.9,1.8,9.9,7.4c0,5.6-5.4,7.4-10.1,7.4
					c-4.4,0-8.6-1.6-10.5-5.7l2.6-1.5c1.6,2.9,4.9,4.4,8,4.4c3,0,7-1,7-4.6c0-3.1-3.4-4-7.2-4.5c-4.8-0.7-9.4-1.8-9.4-6.9
					c-0.1-5.2,5.2-7,9.5-7c3.7,0,7.2,0.7,9.4,4.5l-2.3,1.5C511.9,170.8,509.1,169.8,506.3,169.7z"/>
			</g>
			<g>
				<path d="M521.6,167.6v10.2c1.5-2.3,3.8-3.1,6.1-3.1c4.9,0,7.3,3.3,7.3,8.1v9.6h-2.9v-9.6c0-3.4-1.8-5.4-5-5.4s-5.5,2.5-5.5,5.7
					v9.3h-2.9v-24.8L521.6,167.6L521.6,167.6z"/>
			</g>
			<g>
				<path d="M553,192.4l-0.1-3.2c-1.4,2.4-4,3.5-6.5,3.5c-5,0-9-3.5-9-9.2c0-5.7,4-9.1,9-9c2.6,0,5.2,1.2,6.5,3.5l0-3.2h2.8v17.5
					L553,192.4L553,192.4z M546.6,177.3c-3.5,0-6.3,2.5-6.3,6.4c0,3.9,2.8,6.4,6.3,6.4C555,190.1,555,177.3,546.6,177.3L546.6,177.3
					z"/>
			</g>
			<g>
				<path d="M558.5,174.9h2.8l0.1,3.4c1.4-2.3,4-3.7,6.7-3.7c5,0.1,8.7,3.7,8.7,9c0,5.5-3.7,9.1-8.9,9.1c-2.5,0-5.2-1.1-6.6-3.5
					v11.4h-2.8V174.9z M574,183.7c0-3.9-2.6-6.3-6.2-6.3c-3.7,0-6.1,2.7-6.1,6.3c0,3.6,2.6,6.3,6.1,6.3
					C571.3,190,574,187.6,574,183.7z"/>
			</g>
			<g>
				<path d="M595.5,189.5c-1.8,2.1-4.8,3.1-7.6,3.1c-5.4,0-9.2-3.6-9.2-9.1c0-5.3,3.8-9.1,9.1-9.1c5.4,0,9.4,3.3,8.8,10.3h-14.9
					c0.3,3.2,3,5.2,6.3,5.2c2,0,4.4-0.8,5.6-2.2L595.5,189.5L595.5,189.5z M593.8,182.3c-0.1-3.4-2.5-5.2-5.9-5.2
					c-3,0-5.7,1.8-6.2,5.2L593.8,182.3L593.8,182.3z"/>
			</g>
			<g>
				<path d="M608.8,169.7c-3.2,0-6.5,1.2-6.5,4.3c0,2.7,3.1,3.5,6.7,4.1c5,0.8,9.9,1.8,9.9,7.4c0,5.6-5.4,7.4-10.1,7.4
					c-4.4,0-8.6-1.6-10.5-5.7l2.6-1.5c1.6,2.9,4.9,4.4,8,4.4c3,0,7-1,7-4.6c0-3.1-3.4-4-7.2-4.5c-4.8-0.7-9.4-1.8-9.4-6.9
					c-0.1-5.2,5.2-7,9.5-7c3.7,0,7.2,0.7,9.4,4.5l-2.3,1.5C614.4,170.8,611.5,169.8,608.8,169.7z"/>
			</g>
			<g>
				<path d="M624,167.5v10.2c1.5-2.3,3.8-3.1,6.1-3.1c4.9,0,7.3,3.3,7.3,8.1v9.6h-2.9v-9.6c0-3.4-1.8-5.4-5-5.4s-5.5,2.5-5.5,5.7
					v9.3h-2.9v-24.8L624,167.5L624,167.5z"/>
			</g>
			<g>
				<polygon points="648.8,192.4 648.8,192.4 648.7,192.4 				"/>
				<path d="M652.2,173.6c0-2.6,1.2-3.8,3.1-3.8c0,0,0.1,0,0.1,0l0.7-2.5c-0.3,0-0.6-0.1-0.8-0.1c-3.7,0-5.9,2.3-5.9,6.3v1.4h-3.4
					v2.6h3.4v14.8h2.9v-14.8h3.5V175h-3.5V173.6z"/>
			</g>
			<path d="M667,189.9c-0.2,0-0.5,0.1-0.7,0.1c-2.1,0-2.8-1.3-2.8-3.4v-9h3.7V175h-3.7v-5.3l-2.9,0.3v5h-3.5v2.5h3.5v9
				c0,3.9,1.8,6.1,5.5,6c0.5,0,0.9-0.1,1.4-0.2L667,189.9z"/>
		</g>
	</g>
	<g>
		<path d="M462,179.6c1-0.4,1.8-1,2.5-1.8c0.9-1,1.3-2.3,1.3-3.7c0-1.3-0.3-2.4-0.8-3.3c-0.5-0.9-1.2-1.6-2-2.1
			c-0.8-0.5-1.7-0.9-2.7-1.1c-1-0.2-2-0.3-3-0.3h-7.9v26h7.8c1.5,0,2.8-0.2,4-0.5c1.2-0.3,2.2-0.8,3.1-1.5c0.8-0.6,1.5-1.4,2-2.3
			s0.7-1.9,0.7-3c0-1.9-0.6-3.5-1.7-4.6C464.3,180.5,463.2,179.9,462,179.6z M462.2,176.3c-0.3,0.5-0.7,1-1.2,1.3
			c-0.5,0.3-1.1,0.6-1.7,0.7c-0.6,0.1-1.2,0.2-1.8,0.2h-4.9v-8.4h4.2c0.8,0,1.6,0.1,2.3,0.2c0.7,0.1,1.3,0.4,1.8,0.7
			c0.5,0.3,0.9,0.8,1.2,1.3c0.3,0.5,0.4,1.2,0.4,1.9C462.6,175.1,462.4,175.8,462.2,176.3z M452.5,181.2h5c2,0,3.6,0.4,4.7,1.2
			c1.1,0.8,1.6,1.9,1.6,3.5c0,0.8-0.2,1.6-0.5,2.1c-0.4,0.6-0.8,1.1-1.4,1.5c-0.6,0.4-1.3,0.7-2.1,0.8c-0.8,0.2-1.7,0.3-2.6,0.3
			h-4.5V181.2z"/>
		<path d="M483.3,176l-5.1,13.8l-5.6-13.8h-3.3l7.3,17.1l-1.3,3.4c-0.3,0.9-0.8,1.6-1.2,2.1c-0.4,0.5-1,0.7-1.8,0.7
			c-0.6,0-1.2-0.1-1.7-0.3l-0.3-0.1l-0.3,2.8l0.2,0c0.7,0.1,1.5,0.2,2.2,0.2c1.5,0,2.7-0.4,3.6-1.2c0.8-0.8,1.5-1.9,2-3.2l8.5-21.5
			H483.3z"/>
	</g>
</g>
</svg>
