<svg xmlns="http://www.w3.org/2000/svg" viewBox="0 0 340 541" width="340" height="541"><style>tspan { white-space:pre }.shp0 { fill: #133444 } .shp1 { fill: #c42370 } .shp2 { fill: #1c4d6b } .shp3 { fill: #000000 } .shp4 { fill: #1d4259 } .shp5 { fill: #4b6b9a } .shp6 { fill: #343535 } .shp7 { fill: #3e5578 } .shp8 { fill: #6db2d8 } .shp9 { fill: #335f8a } .shp10 { fill: #529bba } .shp11 { fill: #ffffff } </style><g ><g ><path class="shp0" d="M23.8 276.3L34.7 271.5L170 212.7L316.2 276.3L261.3 389.7L127 408.7L26 299.7L23.8 276.3Z" /><path class="shp1" d="M285.8 206.3C261.7 177.2 227.4 158.3 190 153.3C189.2 153.2 188.4 153.1 187.6 153C175.9 151.6 164.1 151.6 152.4 153C151.6 153.1 150.8 153.2 150 153.3C112.5 158.3 78.3 177.2 54.2 206.3L54.2 206.3L48.1 216.4L38 233.2L30.6 245.5L30.6 245.5C30.5 245.8 30.3 246.2 30.2 246.5L30.1 246.7L46.5 256.4L150 317.7L170 329.5L170 183L150 192.1L150 170.2L170 161.1L190 170.2L291.9 216.5L285.8 206.3Z" /><path class="shp2" d="M320.7 312.7C320.7 361.5 297.5 407.1 261.6 436.5C247.5 448.1 231.3 457.1 214 462.9C199.8 467.6 185 470 170.1 470C86.8 470 19.3 396 19.3 312.7C19.3 300.4 20.8 288.2 23.7 276.2L170 362.8L316.2 276.3C319.2 288.2 320.7 300.5 320.7 312.7Z" /><path class="shp3" d="M152.4 153.1L170 161.1L150 170.2L150 152L152.4 153.1Z" /><path class="shp3" d="M150 192.1L170 183L170 329.6L150 317.7L150 192.1Z" /><path class="shp4" d="M170 183L170 329.6L310.1 246.7L170 183Z" /><path class="shp5" d="M170 14.2L170 183L310.1 246.7L170 14.2Z" /><path class="shp6" d="M170 183L170 329.5L150 317.7L30 246.7L29.8 246.6L30.1 246.5C30.2 246.2 30.4 245.8 30.5 245.5L30.5 245.5L48 216.4L150 170.2L150 192.2L170 183Z" /><path class="shp7" d="M170 183L170 329.6L150 317.7L30 246.8L29.9 246.7L30.1 246.6L150 192.1L170 183Z" /><path class="shp8" d="M170 14.2L170 183L29.9 246.7L170 14.2Z" /><path class="shp9" d="M113.3 458C115.4 458.9 117.5 459.8 119.6 460.6C117.5 459.8 115.4 459 113.3 458Z" /><path class="shp9" d="M119.6 460.6C121.7 461.4 123.9 462.2 126.1 462.9C123.9 462.2 121.7 461.5 119.6 460.6Z" /><path class="shp9" d="M131.6 464.7C133.3 465.2 134.9 465.6 136.6 466C135 465.6 133.3 465.1 131.6 464.7Z" /><path class="shp8" d="M23.8 276.3L170 362.8C168 376 164.5 388.8 159.5 401.2C147.8 429.5 124.2 459.4 78.4 436.6L78.4 436.6C42.4 407.2 19.3 361.5 19.3 312.7C19.3 300.5 20.8 288.2 23.8 276.3Z" /><path class="shp10" d="M261.5 436.6L261.1 436.9C260.3 437.5 259.6 438.1 258.8 438.7L258.6 438.9C257.8 439.6 256.9 440.2 256.1 440.8C255.2 441.5 254.3 442.2 253.3 442.8C252.3 443.4 251.4 444.1 250.5 444.8C249.6 445.5 248.8 445.9 248 446.5L247.5 446.8C246.6 447.4 245.7 447.9 244.9 448.5C244.8 448.6 244.7 448.6 244.6 448.7C243.7 449.3 242.8 449.8 241.9 450.3C241 450.8 239.9 451.5 238.9 452C237.9 452.6 236.9 453.1 235.9 453.6L235.8 453.7C234.8 454.2 233.8 454.7 232.8 455.2C231.8 455.7 230.8 456.2 229.7 456.7C228.6 457.2 227.6 457.7 226.6 458.1C224.5 459 222.4 459.9 220.3 460.7C218.2 461.5 216 462.3 213.8 463C212.9 463.3 212.1 463.6 211.2 463.8C210.3 464.1 209.2 464.4 208.3 464.7C206.6 465.2 205 465.6 203.3 466C202.7 466.2 202 466.3 201.4 466.5L200.3 466.7C199.4 466.9 198.5 467.1 197.6 467.3C196.7 467.5 196 467.6 195.1 467.8C194.2 468 193.6 468.1 192.8 468.2C192 468.3 191.1 468.5 190.3 468.6C189.9 468.7 189.5 468.7 189.1 468.8L187.2 469L186.1 469.1C185.4 469.2 184.7 469.3 184 469.3C183.1 469.4 182.3 469.5 181.4 469.5C180.7 469.5 180.1 469.6 179.4 469.7C178.7 469.7 178.2 469.8 177.6 469.8L177.5 469.8C176.8 469.8 176.1 469.9 175.5 469.9C174.6 469.9 173.6 470 172.7 470C171.8 470 170.8 470 169.8 470C168.8 470 167.9 470 166.9 470C165.9 470 165 470 164.1 469.9C163.4 469.9 162.7 469.8 162 469.8L161.9 469.8C161.3 469.8 160.7 469.7 160.1 469.7C159.5 469.7 158.8 469.6 158.1 469.5C157.2 469.4 156.4 469.4 155.5 469.3C154.8 469.2 154.1 469.2 153.4 469.1L152.4 469C151.8 468.9 151.1 468.8 150.5 468.8C150.1 468.8 149.7 468.7 149.3 468.6C148.5 468.5 147.6 468.4 146.8 468.2C146 468.1 145.3 467.9 144.5 467.8C143.7 467.7 142.9 467.5 142 467.3C141.2 467.1 140.2 466.9 139.3 466.7L138.2 466.5C137.6 466.4 136.9 466.2 136.3 466C134.6 465.6 133 465.1 131.3 464.7L128.3 463.8C127.4 463.5 126.6 463.3 125.7 463C123.5 462.3 121.4 461.5 119.2 460.7C117 459.9 114.9 459 112.9 458.1C111.9 457.6 110.8 457.2 109.8 456.7C108.8 456.2 107.7 455.7 106.7 455.2C105.7 454.7 104.7 454.2 103.7 453.7L103.6 453.6C102.6 453.1 101.6 452.5 100.6 452C99.6 451.5 98.6 450.9 97.6 450.3C96.6 449.7 95.8 449.2 94.9 448.7L94.6 448.5C93.7 448 92.8 447.4 92 446.8L91.5 446.5C90.7 446 89.8 445.4 89 444.8C88.2 444.2 87.1 443.5 86.2 442.8C85.3 442.1 84.4 441.5 83.4 440.8C82.5 440.1 81.7 439.5 80.9 438.9L80.7 438.7C79.9 438.1 79.2 437.5 78.4 436.9L78 436.6C123.7 459.4 147.4 429.4 159.1 401.2C164.1 388.9 167.6 376 169.6 362.8C171.6 376 175.1 388.8 180.1 401.2C192.2 429.4 215.8 459.3 261.5 436.6Z" /><path class="shp9" d="M203.3 466C205 465.6 206.7 465.1 208.3 464.7C206.7 465.2 205 465.6 203.3 466Z" /><path class="shp9" d="M213.9 463C216.1 462.3 218.2 461.5 220.4 460.7C218.3 461.5 216.1 462.2 213.9 463Z" /><path class="shp9" d="M220.4 460.6C222.5 459.8 224.6 458.9 226.7 458C224.7 459 222.5 459.8 220.4 460.6Z" /><path class="shp5" d="M320.7 312.7C320.7 361.5 297.5 407.1 261.6 436.6C215.9 459.4 192.2 429.4 180.5 401.2C175.5 388.9 172 376 170 362.8L316.2 276.3C319.2 288.2 320.7 300.5 320.7 312.7Z" /></g></g><g ><g ><g ><g ><path class="shp11" d="M255.7 518.6L258.9 518.6L258.9 500L255.7 500L255.7 518.6Z" /></g><path class="shp11" d="M255.7 494.5L258.9 494.5L258.9 497.7L255.7 497.7L255.7 494.5Z" /><g ><path class="shp11" d="M111.1 494.3C107.8 494.3 104.1 495.6 104.1 499C104.1 501.8 107.4 502.8 111.4 503.3C116.7 504.1 122 505.3 122 511.3C122 517.3 116.2 519.3 111 519.3C106.2 519.3 101.7 517.6 99.7 513.2L102.5 511.5C104.2 514.7 107.8 516.2 111.1 516.2C114.4 516.2 118.7 515.2 118.7 511.2C118.7 507.9 115 506.9 111.1 506.4C106 505.6 101 504.4 101 498.9C101 493.3 106.6 491.4 111.3 491.4C115.3 491.4 119.1 492.2 121.4 496.2L118.9 497.7C117.1 495.3 114.1 494.3 111.1 494.3Z" /></g><g ><path class="shp11" d="M127.6 492L127.6 503C129.3 500.5 131.8 499.7 134.1 499.7C139.4 499.7 142.1 503.2 142.1 508.3L142.1 518.8L138.9 518.8L138.9 508.5C138.9 504.8 136.9 502.7 133.6 502.7C130.3 502.7 127.6 505.4 127.6 508.8L127.6 518.8L124.4 518.8L124.4 492L127.6 492L127.6 492Z" /></g><g ><path fill-rule="evenodd" class="shp11" d="M161.5 515.2C160 517.9 157.2 519 154.5 519C149 519 144.9 515.2 144.9 509C144.9 502.8 149.2 499.2 154.5 499.2C157.3 499.2 160.1 500.5 161.5 503L161.5 499.5L164.5 499.5L164.5 518.4L161.5 518.7L161.5 515.2ZM147.7 509.3C147.7 513.5 150.7 516.3 154.5 516.3C163.6 516.3 163.6 502.3 154.5 502.5C150.7 502.5 147.7 505.2 147.7 509.3Z" /></g><g ><path fill-rule="evenodd" class="shp11" d="M167.5 499.8L170.5 499.8L170.7 503.5C172.2 501 175 499.5 178 499.5C183.5 499.7 187.5 503.5 187.5 509.3C187.5 515.3 183.5 519.1 177.9 519.1C175.2 519.1 172.3 517.9 170.8 515.3L170.8 527.6L167.8 527.6L167.8 499.9L167.5 499.9L167.5 499.8ZM184.1 509.3C184.1 505 181.3 502.5 177.5 502.5C173.5 502.5 170.9 505.3 170.9 509.3C170.9 513.1 173.7 516.1 177.5 516.1C181.3 516.1 184.1 513.6 184.1 509.3Z" /></g><g ><path fill-rule="evenodd" class="shp11" d="M199.2 518.9C193.4 518.9 189.2 515.1 189.2 509.1C189.2 503.5 193.4 499.3 199 499.3C204.8 499.3 209.1 502.8 208.5 510.4L192.4 510.4C192.7 513.9 195.6 516 199.2 516C201.4 516 204 515.2 205.2 513.7L207.3 515.6C205.3 517.9 202.2 518.9 199.2 518.9ZM199.2 502.2C195.9 502.2 193.1 504.2 192.6 507.8L205.5 507.8C205.3 504.1 202.8 502.2 199.2 502.2Z" /></g><g ><path class="shp11" d="M221.6 494.3C218.3 494.3 214.6 495.6 214.6 499C214.6 501.8 217.9 502.8 221.9 503.3C227.2 504.1 232.5 505.3 232.5 511.3C232.5 517.3 226.7 519.3 221.5 519.3C216.7 519.3 212.2 517.6 210.2 513.2L213 511.5C214.7 514.7 218.3 516.2 221.6 516.2C224.9 516.2 229.2 515.2 229.2 511.2C229.2 507.9 225.5 506.9 221.6 506.4C216.5 505.6 211.5 504.4 211.5 498.9C211.5 493.3 217.1 491.4 221.8 491.4C225.8 491.4 229.6 492.2 231.9 496.2L229.4 497.7C227.6 495.3 224.6 494.3 221.6 494.3Z" /></g><g ><path class="shp11" d="M238 491.8L238 502.8C239.7 500.3 242.2 499.5 244.5 499.5C249.8 499.5 252.5 503 252.5 508.1L252.5 518.6L249.3 518.6L249.3 508.3C249.3 504.6 247.3 502.5 244 502.5C240.7 502.5 238 505.2 238 508.6L238 518.6L234.8 518.6L234.8 491.9L238 491.9L238 491.8Z" /></g><g ><path class="shp11" d="M264.6 518.7L264.6 518.7L264.6 518.7Z" /><path class="shp11" d="M268.4 498.5C268.4 495.7 269.7 494.3 271.7 494.3C271.7 494.3 271.7 494.3 271.9 494.3L272.6 491.6C272.3 491.6 271.9 491.6 271.8 491.6C267.8 491.6 265.5 494.1 265.5 498.4L265.5 499.9L261.8 499.9L261.8 502.7L265.5 502.7L265.5 518.6L268.7 518.6L268.7 502.7L272.5 502.7L272.5 500L268.7 500L268.7 498.5L268.4 498.5Z" /></g><path class="shp11" d="M284.4 515.9C284.2 515.9 283.9 515.9 283.7 515.9C281.4 515.9 280.7 514.4 280.7 512.2L280.7 502.4L284.7 502.4L284.7 499.7L280.7 499.7L280.7 494L277.5 494.3L277.5 499.8L273.7 499.8L273.7 502.5L277.5 502.5L277.5 512.3C277.5 516.5 279.5 518.8 283.5 518.8C284 518.8 284.5 518.8 285 518.6L284.4 515.9Z" /></g></g><g ><path fill-rule="evenodd" class="shp11" d="M66.8 507C67.9 508.2 68.6 509.8 68.6 512C68.6 513.3 68.4 514.3 67.9 515.3C67.4 516.3 66.5 517.1 65.7 517.8C64.7 518.7 63.7 519.2 62.4 519.5C61.1 519.8 59.8 520 58.1 520L49.6 520L49.6 491.9L58.1 491.9C59.1 491.9 60.3 492 61.3 492.2C62.5 492.4 63.5 492.9 64.3 493.4C65.2 494 66 494.7 66.5 495.7C67 496.5 67.3 497.7 67.3 499.2C67.3 500.7 67 502 66 503.2C65.3 504 64.3 504.7 63.3 505C64.6 505.3 66 506 66.8 507ZM63.8 499.1C63.8 498.2 63.6 497.4 63.3 496.9C63 496.4 62.5 495.9 62 495.6C61.5 495.3 60.8 495 60 494.8C59.2 494.6 58.3 494.6 57.5 494.6L53 494.6L53 503.6L58.4 503.6C59.1 503.6 59.7 503.6 60.4 503.4C61 503.3 61.7 502.9 62.2 502.6C62.7 502.3 63.2 501.8 63.5 501.3C63.8 500.8 64 500.1 63.8 499.1ZM53.3 516.6L58.3 516.6C59.3 516.6 60.3 516.5 61.1 516.3C61.9 516.2 62.7 515.8 63.4 515.5C64.1 515.2 64.6 514.7 64.9 514C65.2 513.4 65.4 512.5 65.4 511.7C65.4 510.1 64.9 508.7 63.7 507.9C62.5 507.1 60.9 506.6 58.7 506.6L53.2 506.6C53.2 506.6 53.2 516.8 53.3 516.6Z" /><path class="shp11" d="M86.2 501L80.7 515.9L74.7 501L71 501L78.8 519.4L77.3 523.1C77 524.1 76.5 524.9 76 525.4C75.5 525.9 74.8 526.1 74 526.1C73.3 526.1 72.7 525.9 72.2 525.8L71.9 525.6L71.6 528.6L71.9 528.6C72.7 528.8 73.6 528.8 74.4 528.8C76.1 528.8 77.4 528.3 78.2 527.5C79 526.7 79.9 525.5 80.4 524L89.5 500.7L86.2 500.7L86.2 501Z" /></g></g></svg>